<svg xmlns="http://www.w3.org/2000/svg" viewBox="0 0 200 250" fill="#b19cd9">
  <path d="
    M 100 245
    C 85 245, 75 240, 70 230
    C 62 215, 58 195, 55 175
    C 52 155, 48 140, 42 125
    C 36 110, 30 100, 28 90
    C 26 80, 28 70, 32 62
    C 36 54, 42 48, 48 44
    C 44 38, 38 28, 35 18
    C 33 10, 34 5, 38 3
    C 42 1, 48 6, 55 16
    C 60 24, 64 30, 68 36
    C 74 30, 80 24, 86 18
    C 92 10, 98 6, 102 8
    C 106 10, 106 16, 104 24
    C 100 34, 94 42, 90 48
    C 96 52, 102 58, 108 66
    C 114 74, 118 84, 120 96
    C 122 108, 124 122, 126 136
    C 128 150, 130 165, 130 180
    C 130 195, 128 210, 125 225
    C 122 235, 115 245, 100 245
    Z
  "/>
  <path d="
    M 128 180
    C 132 170, 140 158, 150 150
    C 158 144, 165 142, 170 145
    C 175 148, 174 154, 170 160
    C 164 168, 155 175, 148 182
  " stroke="#b19cd9" stroke-width="8" fill="none" stroke-linecap="round"/>
</svg>
